<?xml version="1.0" encoding="utf-8"?>
<!-- Generator: Adobe Illustrator 16.0.0, SVG Export Plug-In . SVG Version: 6.00 Build 0)  -->
<!DOCTYPE svg PUBLIC "-//W3C//DTD SVG 1.1//EN" "http://www.w3.org/Graphics/SVG/1.1/DTD/svg11.dtd">
<svg version="1.1" id="Ebene_1" xmlns="http://www.w3.org/2000/svg" xmlns:xlink="http://www.w3.org/1999/xlink" x="0px" y="0px"
	 width="566.93px" height="142.143px" viewBox="0 0 566.93 142.143" enable-background="new 0 0 566.93 142.143"
	 xml:space="preserve">
<g>
	<path fill="#089BD9" d="M129.59,94.708c1.896-4.19,3.774-8.333,5.642-12.55C137.039,78.072,138.833,74,140.61,70h22.134
		c1.832,4,3.639,8.116,5.414,12.198c1.839,4.22,3.702,8.322,5.6,12.515L173.931,95h7.217l-0.392-0.792
		c-4.765-10.694-9.503-21.242-14.211-31.823l-14.823-33.292l-0.612,1.373c-4.771,10.704-9.51,21.251-14.214,31.831L122.294,95h7.124
		L129.59,94.708z M148.019,54.036c1.369-2.943,2.599-6.051,3.671-9.053c0.079,0.253,0.157,0.468,0.243,0.774
		c1.408,3.138,2.779,6.446,4.126,9.553c1.217,2.822,2.459,5.69,3.731,8.69h-16.231C145.019,60,146.509,57.286,148.019,54.036z"/>
	<path fill="#089BD9" d="M211.475,86.107c-1.216,0.984-2.641,1.748-4.237,2.268c-3.22,1.057-7.004,1.019-9.957,0.09
		c-1.507-0.471-2.907-1.097-4.165-1.861c-1.265-0.76-2.437-1.602-3.485-2.503c-1.054-0.903-2.01-1.812-2.839-2.697l-0.469-0.502
		l-4.55,4.55l0.324,0.456c0.765,1.083,1.834,2.218,3.181,3.377c1.342,1.155,2.923,2.229,4.7,3.197
		c1.778,0.969,3.749,1.788,5.851,2.438c2.131,0.656,4.449,0.991,6.891,0.991c2.69,0,5.264-0.43,7.65-1.278
		c2.391-0.845,4.516-2.093,6.317-3.705c1.799-1.608,3.241-3.581,4.29-5.86c1.044-2.28,1.574-4.869,1.574-7.703
		c0-3.356-0.73-6.22-2.167-8.51c-1.41-2.262-3.195-4.19-5.304-5.735c-2.097-1.528-4.384-2.789-6.796-3.749
		c-2.32-0.923-4.52-1.746-6.547-2.445c-1.43-0.474-2.817-0.991-4.124-1.536c-1.25-0.526-2.354-1.17-3.279-1.92
		c-0.9-0.731-1.627-1.632-2.164-2.677c-0.527-1.03-0.795-2.332-0.795-3.868c0-1.455,0.234-2.843,0.696-4.135
		c0.455-1.28,1.132-2.425,2.02-3.397c0.877-0.965,2.018-1.757,3.396-2.354c1.369-0.604,3.006-0.909,4.866-0.909
		c1.416,0,2.731,0.163,3.913,0.482c1.182,0.313,2.301,0.717,3.321,1.196c1.005,0.473,1.894,0.99,2.64,1.539
		c0.769,0.561,1.436,1.089,1.977,1.565l0.518,0.456l0.437-0.534c0.557-0.68,1.103-1.4,1.627-2.144
		c0.513-0.722,1.04-1.411,1.578-2.075l0.409-0.505l-0.492-0.417c-2.987-2.55-5.807-4.275-8.382-5.125
		c-2.561-0.845-5.099-1.272-7.545-1.272c-3.323,0-6.179,0.546-8.487,1.623c-2.311,1.075-4.206,2.474-5.635,4.158
		c-1.435,1.695-2.465,3.629-3.065,5.752c-0.603,2.111-0.874,4.231-0.806,6.295c0.061,2.724,0.628,5.049,1.688,6.917
		c1.047,1.834,2.318,3.376,3.779,4.584c1.445,1.196,2.996,2.155,4.607,2.849c1.568,0.677,2.902,1.232,4.02,1.661
		c1.618,0.604,3.427,1.223,5.532,1.888c1.958,0.63,3.822,1.472,5.54,2.503c1.687,1.021,3.133,2.349,4.298,3.952
		c1.135,1.559,1.71,3.571,1.71,5.979c0,1.835-0.377,3.511-1.12,4.974C213.667,83.901,212.677,85.134,211.475,86.107z"/>
	<polygon fill="#089BD9" points="273,88 239,88 239,65 269,65 269,59 239,59 239,36 272,36 272,29 232,29 232,95 273,95 	"/>
	<path fill="#089BD9" d="M287.148,94.708c1.897-4.19,3.776-8.331,5.645-12.55C294.597,78.072,296.39,74,298.168,70h22.133
		c1.834,4,3.639,8.116,5.418,12.198c1.833,4.22,3.697,8.322,5.593,12.515L331.484,95h7.22l-0.391-0.792
		c-4.767-10.694-9.505-21.242-14.211-31.821c-4.708-10.578-9.448-21.217-14.215-31.917l-0.612-1.464L279.85,95h7.125L287.148,94.708
		z M305.578,54.036c1.356-2.915,2.588-6.025,3.668-9.059c0.082,0.252,0.162,0.474,0.248,0.779c1.401,3.138,2.774,6.446,4.119,9.556
		c1.218,2.819,2.465,5.688,3.735,8.688h-16.233C302.579,60,304.064,57.286,305.578,54.036z"/>
	<path fill="#089BD9" d="M353.135,45.665c-0.022-0.16-0.043-0.255-0.06-0.416c0.116,0.146,0.238,0.327,0.372,0.489
		c8.19,8.107,16.335,16.16,24.438,24.131c8.094,7.965,16.006,16.01,24.193,24.116L403,95.144V30h-6.535l0.004,49.995
		c0.023,0.16,0.041,0.22,0.061,0.382c-0.117-0.146-0.238-0.342-0.37-0.504c-8.191-8.211-16.339-16.401-24.434-24.502
		c-8.105-8.104-16.309-16.278-24.5-24.493L346,29.697V95h7.142L353.135,45.665z"/>
	<polygon fill="#089BD9" points="113.109,106 115.253,108.702 117.874,112 414,112 414,106 	"/>
</g>
<path fill="#014182" d="M99.016,122.813l11.849-10.75L96.662,95.398c4.688-7.032,7.431-15.468,7.431-24.559
	c0-24.574-19.921-44.492-44.496-44.492c-24.573,0-44.493,19.918-44.493,44.492s19.92,44.499,44.493,44.499
	c6.071,0,11.836-1.254,17.102-3.464c0.7-0.293-10.787-12.814-10.787-12.814c-2.034,0.453-4.144,0.711-6.315,0.711
	c-15.977,0-28.929-12.953-28.929-28.932c0-15.976,12.952-28.932,28.929-28.932c15.98,0,28.932,12.956,28.932,28.932
	c0,10.308-5.408,19.333-13.524,24.458l1.827,1.69l-0.008,0.009L99.016,122.813z"/>
<g>
	<rect x="413" y="106" fill="#014182" width="139" height="6"/>
	<path fill="#014182" d="M441.357,86.13c3.007,3.012,6.56,6.15,10.596,7.89c4.038,1.74,7.268,2.98,11.861,2.98
		C466.053,97,502,97,502,97v-3.634c0-1.561,0.465-3.12,1.127-4.681c0.915-2.156,2.584-6.49,2.584-6.49S509.183,73,510.96,70h22.138
		c1.828,3,3.634,8.117,5.418,12.199C540.345,86.418,544.281,97,544.281,97h7.22c0,0-9.896-23.579-14.606-34.157
		c-4.704-10.581-9.443-21.444-14.21-32.144l-0.615-1.492l-14.827,33.019C503.404,70.862,499.525,79,495.64,88H485.53
		c4.504-3.523,6.629-5.904,8.954-9.975c2.711-4.721,4.081-9.902,4.081-15.622c0-4.594-0.899-8.93-2.67-13
		c-1.768-4.063-4.188-7.621-7.197-10.629c-3.011-3.011-6.597-5.422-10.655-7.191c-4.087-1.774-8.479-2.666-13.059-2.666
		c-4.585,0-8.963,0.901-13.015,2.676c-4.035,1.771-7.605,4.195-10.612,7.206c-3.006,3.007-5.416,6.595-7.154,10.66
		c-1.735,4.062-2.617,8.454-2.617,13.053c0,4.6,0.882,8.979,2.617,13.011C435.941,79.556,438.352,83.125,441.357,86.13z
		 M518.37,54.037c1.352-2.906,2.584-6.019,3.67-9.059c0.08,0.256,0.162,0.474,0.243,0.779c1.406,3.135,2.782,6.442,4.123,9.554
		c1.221,2.82,2.47,6.688,3.735,8.688H513.91C515.372,62,516.854,57.286,518.37,54.037z M440.702,52.184
		c1.396-3.244,3.311-6.121,5.686-8.554c2.358-2.424,5.173-4.365,8.366-5.77c3.165-1.393,6.608-2.102,10.23-2.102
		c3.619,0,7.076,0.709,10.276,2.102c3.217,1.405,6.063,3.346,8.457,5.773c2.408,2.439,4.336,5.314,5.729,8.551
		c1.395,3.235,2.1,6.71,2.1,10.328c0,3.676-0.705,7.163-2.098,10.37c-1.392,3.205-3.32,6.053-5.731,8.461
		c-2.404,2.404-5.264,4.333-8.501,5.726c-3.222,1.395-6.696,2.103-10.326,2.103c-3.623,0-7.068-0.708-10.229-2.099
		c-3.181-1.396-5.997-3.322-8.368-5.726c-2.374-2.401-4.271-5.247-5.639-8.461c-1.364-3.194-2.056-6.685-2.056-10.372
		C438.6,58.899,439.305,55.424,440.702,52.184z"/>
	<rect x="413" y="64" fill="#014182" width="12" height="4"/>
</g>
</svg>
