<svg xmlns="http://www.w3.org/2000/svg" xmlns:xlink="http://www.w3.org/1999/xlink" version="1.1" x="0px" y="0px" width="330px" height="45px" viewBox="0 0 330 45" overflow="visible" enable-background="new 0 0 330 45" xml:space="preserve" aria-label="Logo of German Rectors' Conference">
    <title>Logo of German Rectors' Conference</title>
    <g id="logo_acronym">
        <polygon fill="#990000" points="12.135,18.873 12.135,1.653 8.004,1.653 8.004,8.417 4.105,8.417 4.105,1.653 0,1.653 0,18.873   4.105,18.873 4.105,11.644 8.004,11.644 8.004,18.873 12.135,18.873 "></polygon>
        <path fill-rule="evenodd" clip-rule="evenodd" fill="#990000" d="M28.141,18.873l-1.807-5.86c-0.517-1.678-1.11-2.376-2.349-2.711   c2.22-0.438,3.433-1.988,3.433-4.234c0-2.995-2.53-4.415-5.318-4.415h-6.325v17.22h4.053v-6.894h0.826   c0.853,0,1.369,0.466,1.756,1.859l1.369,5.035H28.141L28.141,18.873z M23.262,6.765c0,1.369-0.852,2.194-2.324,2.194h-1.136V4.647   h1.11C22.333,4.647,23.262,5.293,23.262,6.765L23.262,6.765z"></path>
        <polygon fill="#990000" points="43.817,18.873 38.214,9.682 43.352,1.653 38.68,1.653 34.677,8.882 34.677,1.653 30.573,1.653   30.573,18.873 34.677,18.873 34.677,10.947 38.886,18.873 43.817,18.873 "></polygon>
    </g>
    <g id="logo_full">
        <g id="logo_full_subline">
            <polygon points="63.581,34.723 63.581,33.398 57.005,33.398 57.005,34.723 59.496,34.723 59.496,44.705 61.073,44.705    61.073,34.723 63.581,34.723 "></polygon>
            <path d="M70.781,44.705v-5.832c0-1.525-0.61-2.812-2.321-2.812c-0.916,0-1.729,0.627-2.068,1.406v-4.982h-1.458v12.221h1.458v-5.271    c0-0.916,0.525-2.17,1.61-2.17c0.966,0,1.322,0.795,1.322,1.695v5.746H70.781L70.781,44.705z"></path>
            <path fill-rule="evenodd" clip-rule="evenodd" d="M78.66,40.84v-0.541c0-1.916-0.61-4.238-2.933-4.238    c-2.237,0-3.135,2.287-3.135,4.371c0,2.373,0.898,4.459,3.542,4.459c0.729,0,1.577-0.17,2.237-0.475l-0.102-1.305    c-0.559,0.373-1.322,0.643-2,0.643c-1.695,0-2.186-1.523-2.186-2.914H78.66L78.66,40.84z M77.236,39.857h-3.152    c0-1.086,0.44-2.695,1.644-2.695C76.965,37.162,77.236,38.822,77.236,39.857L77.236,39.857z"></path>
            <polygon points="91.665,33.398 90.072,33.398 87.614,42.926 85.139,33.398 83.444,33.398 86.699,44.705 88.445,44.705    91.665,33.398 "></polygon>
            <path fill-rule="evenodd" clip-rule="evenodd" d="M98.8,40.432c0-2.168-0.83-4.371-3.356-4.371c-2.339,0-3.356,2.287-3.356,4.371    c0,2.154,0.881,4.459,3.356,4.459C97.902,44.891,98.8,42.533,98.8,40.432L98.8,40.432z M97.241,40.432    c0,1.17-0.254,3.271-1.796,3.271c-1.56,0-1.797-2.084-1.797-3.271c0-1.135,0.288-3.186,1.797-3.186    C97.038,37.246,97.241,39.229,97.241,40.432L97.241,40.432z"></path>
            <path fill-rule="evenodd" clip-rule="evenodd" d="M102.099,34.502v-1.629h-1.491v1.629H102.099L102.099,34.502z M102.082,44.705    V36.23h-1.458v8.475H102.082L102.082,44.705z"></path>
            <path d="M109.264,44.553l-0.103-1.34c-0.373,0.236-0.915,0.441-1.372,0.441c-1.763,0-2.339-1.713-2.339-3.223    c0-1.422,0.593-3.133,2.237-3.133c0.491,0,1.017,0.117,1.424,0.389l0.102-1.289c-0.542-0.221-1.102-0.338-1.677-0.338    c-2.221,0-3.645,1.881-3.645,4.371c0,2.291,1.051,4.459,3.593,4.459C108.094,44.891,108.687,44.756,109.264,44.553L109.264,44.553z"></path>
            <path fill-rule="evenodd" clip-rule="evenodd" d="M116.497,40.84v-0.541c0-1.916-0.61-4.238-2.932-4.238    c-2.237,0-3.136,2.287-3.136,4.371c0,2.373,0.899,4.459,3.543,4.459c0.729,0,1.576-0.17,2.237-0.475l-0.102-1.305    c-0.56,0.373-1.322,0.643-2,0.643c-1.695,0-2.187-1.523-2.187-2.914H116.497L116.497,40.84z M115.073,39.857h-3.152    c0-1.086,0.441-2.695,1.645-2.695C114.802,37.162,115.073,38.822,115.073,39.857L115.073,39.857z"></path>
            <path fill-rule="evenodd" clip-rule="evenodd" d="M128.519,40.432c0-2.168-0.83-4.371-3.356-4.371c-2.339,0-3.356,2.287-3.356,4.371    c0,2.154,0.881,4.459,3.356,4.459C127.621,44.891,128.519,42.533,128.519,40.432L128.519,40.432z M126.959,40.432    c0,1.17-0.253,3.271-1.796,3.271c-1.559,0-1.796-2.084-1.796-3.271c0-1.135,0.289-3.186,1.796-3.186    C126.756,37.246,126.959,39.229,126.959,40.432L126.959,40.432z"></path>
            <path d="M134.021,32.467c-0.254-0.051-0.559-0.152-1.034-0.152c-1.423,0-2.186,0.695-2.186,2.441v1.475h-1.322v1.168h1.322v7.307    h1.458v-7.307h1.492V36.23h-1.492v-1.459c0-0.812,0.305-1.27,1.034-1.27c0.22,0,0.441,0.033,0.627,0.117L134.021,32.467    L134.021,32.467z"></path>
            <path d="M142.653,44.652l-0.102-1.219c-0.254,0.135-0.492,0.236-0.762,0.236c-0.797,0-0.848-0.508-0.848-1.17v-5.102h1.644V36.23    h-1.644v-2.34l-1.441,0.475v1.865h-1.237v1.168h1.22v5.459c0,1.203,0.509,2.033,1.813,2.033    C141.722,44.891,142.23,44.807,142.653,44.652L142.653,44.652z"></path>
            <path d="M149.974,44.705v-5.832c0-1.525-0.609-2.812-2.322-2.812c-0.916,0-1.729,0.627-2.068,1.406v-4.982h-1.458v12.221h1.458    v-5.271c0-0.916,0.526-2.17,1.61-2.17c0.966,0,1.322,0.795,1.322,1.695v5.746H149.974L149.974,44.705z"></path>
            <path fill-rule="evenodd" clip-rule="evenodd" d="M157.853,40.84v-0.541c0-1.916-0.61-4.238-2.932-4.238    c-2.238,0-3.136,2.287-3.136,4.371c0,2.373,0.897,4.459,3.542,4.459c0.729,0,1.577-0.17,2.238-0.475l-0.102-1.305    c-0.56,0.373-1.323,0.643-2,0.643c-1.695,0-2.187-1.523-2.187-2.914H157.853L157.853,40.84z M156.429,39.857h-3.152    c0-1.086,0.441-2.695,1.645-2.695C156.158,37.162,156.429,38.822,156.429,39.857L156.429,39.857z"></path>
            <path d="M170.824,40.604v-7.205h-1.576v7.357c0,1.406-0.287,2.848-1.982,2.848c-1.746,0-1.964-1.441-1.964-2.848v-7.357h-1.578    v7.205c0,2.439,0.831,4.287,3.542,4.287C169.875,44.891,170.824,42.941,170.824,40.604L170.824,40.604z"></path>
            <path d="M179.059,44.705v-5.762c0-1.545-0.609-2.883-2.338-2.883c-1.035,0-1.814,0.627-2.203,1.406l-0.033-1.236h-1.357    c0.016,0.779,0.068,1.559,0.068,2.338v6.137h1.457V39.35c0-0.916,0.51-2.086,1.609-2.086c0.984,0,1.34,0.83,1.34,1.729v5.713    H179.059L179.059,44.705z"></path>
            <path fill-rule="evenodd" clip-rule="evenodd" d="M182.818,34.502v-1.629h-1.49v1.629H182.818L182.818,34.502z M182.803,44.705    V36.23h-1.457v8.475H182.803L182.803,44.705z"></path>
        </g>
        <g id="logo_full_name">
            <polygon points="190.713,36.23 189.238,36.23 187.459,43.264 185.68,36.23 184.086,36.23 186.543,44.705 188.307,44.705    190.713,36.23 "></polygon>
            <path fill-rule="evenodd" clip-rule="evenodd" d="M197.592,40.84v-0.541c0-1.916-0.609-4.238-2.93-4.238    c-2.238,0-3.137,2.287-3.137,4.371c0,2.373,0.898,4.459,3.543,4.459c0.729,0,1.574-0.17,2.236-0.475l-0.102-1.305    c-0.561,0.373-1.322,0.643-2,0.643c-1.693,0-2.186-1.523-2.186-2.914H197.592L197.592,40.84z M196.168,39.857h-3.15    c0-1.086,0.439-2.695,1.645-2.695C195.896,37.162,196.168,38.822,196.168,39.857L196.168,39.857z"></path>
            <path d="M203.111,36.111c-0.119-0.016-0.236-0.051-0.355-0.051c-0.967,0-1.678,0.66-2.066,1.508l-0.035-1.338h-1.355    c0.018,0.779,0.066,1.559,0.066,2.338v6.137h1.459v-4.748c0-1.084,0.49-2.49,1.764-2.49c0.15,0,0.287,0.035,0.422,0.051    L203.111,36.111L203.111,36.111z"></path>
            <path d="M209.023,42.365c0-2.609-3.492-2.203-3.492-4.018c0-0.695,0.678-1.102,1.322-1.102c0.594,0,1.066,0.17,1.627,0.391    l0.102-1.271c-0.576-0.188-1.221-0.305-1.797-0.305c-1.338,0-2.762,0.797-2.762,2.373c0,2.627,3.49,2.338,3.49,4.084    c0,0.729-0.711,1.186-1.355,1.186c-0.711,0-1.424-0.236-2.084-0.592l-0.137,1.373c0.764,0.271,1.561,0.406,2.391,0.406    C207.871,44.891,209.023,43.941,209.023,42.365L209.023,42.365z"></path>
            <path fill-rule="evenodd" clip-rule="evenodd" d="M212.189,34.502v-1.629h-1.49v1.629H212.189L212.189,34.502z M212.174,44.705    V36.23h-1.457v8.475H212.174L212.174,44.705z"></path>
            <path d="M217.998,44.652l-0.1-1.219c-0.254,0.135-0.492,0.236-0.764,0.236c-0.797,0-0.846-0.508-0.846-1.17v-5.102h1.643V36.23    h-1.643v-2.34l-1.441,0.475v1.865h-1.238v1.168h1.221v5.459c0,1.203,0.51,2.033,1.814,2.033    C217.066,44.891,217.576,44.807,217.998,44.652L217.998,44.652z"></path>
            <path fill-rule="evenodd" clip-rule="evenodd" d="M220.947,34.502v-1.629h-1.492v1.629H220.947L220.947,34.502z M220.932,44.705    V36.23h-1.459v8.475H220.932L220.932,44.705z"></path>
            <path fill-rule="evenodd" clip-rule="evenodd" d="M228.807,40.84v-0.541c0-1.916-0.609-4.238-2.932-4.238    c-2.238,0-3.135,2.287-3.135,4.371c0,2.373,0.896,4.459,3.541,4.459c0.73,0,1.576-0.17,2.236-0.475l-0.1-1.305    c-0.561,0.373-1.324,0.643-2,0.643c-1.695,0-2.188-1.523-2.188-2.914H228.807L228.807,40.84z M227.383,39.857h-3.152    c0-1.086,0.441-2.695,1.645-2.695C227.111,37.162,227.383,38.822,227.383,39.857L227.383,39.857z"></path>
            <path d="M235.105,42.365c0-2.609-3.49-2.203-3.49-4.018c0-0.695,0.678-1.102,1.32-1.102c0.594,0,1.068,0.17,1.627,0.391l0.104-1.271    c-0.578-0.188-1.221-0.305-1.799-0.305c-1.338,0-2.762,0.797-2.762,2.373c0,2.627,3.492,2.338,3.492,4.084    c0,0.729-0.713,1.186-1.357,1.186c-0.711,0-1.424-0.236-2.084-0.592l-0.135,1.373c0.762,0.271,1.559,0.406,2.389,0.406    C233.953,44.891,235.105,43.941,235.105,42.365L235.105,42.365z"></path>
            <path d="M69.343,18.202V9.476h-4.932v1.885h2.685v5.344c-0.62,0.335-1.239,0.465-1.936,0.465c-3.847,0-5.241-3.511-5.241-6.894    c0-3.356,1.575-6.893,5.267-6.893c1.343,0,2.659,0.413,3.641,1.058l0.154-2.219C67.897,1.73,66.58,1.395,65.16,1.395    c-5.008,0-7.719,4.208-7.719,8.881c0,4.75,2.272,8.881,7.513,8.881C66.374,19.157,68.026,18.873,69.343,18.202L69.343,18.202z"></path>
            <path fill-rule="evenodd" clip-rule="evenodd" d="M81.114,12.987v-0.826c0-2.917-0.93-6.455-4.466-6.455    c-3.408,0-4.776,3.486-4.776,6.661c0,3.614,1.368,6.79,5.396,6.79c1.11,0,2.4-0.258,3.408-0.723l-0.155-1.987    c-0.852,0.567-2.013,0.98-3.046,0.98c-2.582,0-3.331-2.323-3.331-4.44H81.114L81.114,12.987z M78.945,11.49h-4.801    c0-1.653,0.671-4.105,2.504-4.105C78.532,7.384,78.945,9.914,78.945,11.49L78.945,11.49z"></path>
            <path d="M89.525,5.784c-0.181-0.026-0.362-0.078-0.542-0.078c-1.472,0-2.556,1.007-3.15,2.298l-0.051-2.04h-2.065    c0.026,1.187,0.104,2.375,0.104,3.562v9.346h2.22v-7.229c0-1.652,0.749-3.795,2.685-3.795c0.232,0,0.439,0.051,0.646,0.078    L89.525,5.784L89.525,5.784z"></path>
            <path d="M106.407,18.873V9.941c0-2.531-0.93-4.235-3.357-4.235c-1.394,0-2.426,0.852-3.201,2.143    c-0.517-1.368-1.497-2.143-3.046-2.143c-1.42,0-2.531,0.904-3.125,2.143l-0.077-1.885h-2.065c0.026,1.162,0.104,2.401,0.104,3.562    v9.346h2.22v-8.184c0-1.343,0.801-3.15,2.221-3.15c1.575,0,1.833,1.369,1.833,2.633v8.701h2.194v-8.184c0-1.343,0.8-3.15,2.246-3.15    c1.575,0,1.833,1.369,1.833,2.633v8.701H106.407L106.407,18.873z"></path>
            <path fill-rule="evenodd" clip-rule="evenodd" d="M118.361,18.873c-0.051-0.878-0.128-1.755-0.128-2.813v-5.99    c0-2.685-1.239-4.363-4.416-4.363c-1.523,0-2.607,0.413-3.821,1.007l0.155,1.988c0.956-0.724,2.272-1.266,3.356-1.266    c1.937,0,2.557,1.161,2.557,2.84v0.775h-0.852c-2.814,0-6.222,0.955-6.222,4.415c0,2.09,1.523,3.691,3.64,3.691    c1.652,0,2.608-0.723,3.485-2.091l0.104,1.808H118.361L118.361,18.873z M116.063,13.89c0,1.704-0.826,3.537-2.737,3.537    c-1.266,0-2.092-0.826-2.092-2.065c0-2.479,2.375-2.839,4.416-2.839h0.413V13.89L116.063,13.89z"></path>
            <path d="M130.647,18.873v-8.778c0-2.349-0.93-4.389-3.563-4.389c-1.575,0-2.763,0.955-3.356,2.143l-0.052-1.885h-2.065    c0.026,1.187,0.104,2.375,0.104,3.562v9.346h2.221v-8.158c0-1.395,0.774-3.175,2.452-3.175c1.498,0,2.04,1.265,2.04,2.633v8.701    H130.647L130.647,18.873z"></path>
            <path fill-rule="evenodd" clip-rule="evenodd" d="M151.063,18.873l-2.375-6.661c-0.413-1.162-0.877-1.73-1.936-1.937    c2.195-0.413,3.382-1.962,3.382-4.183c0-2.839-2.039-4.439-4.776-4.439h-4.775v17.22h2.375v-7.642h1.626    c1.213,0,1.626,0.774,2.039,2.014l1.885,5.628H151.063L151.063,18.873z M147.682,6.352c0,1.885-1.007,2.943-2.944,2.943h-1.807    V3.589h1.729C146.494,3.589,147.682,4.44,147.682,6.352L147.682,6.352z"></path>
            <path fill-rule="evenodd" clip-rule="evenodd" d="M161.958,12.987v-0.826c0-2.917-0.93-6.455-4.467-6.455    c-3.408,0-4.776,3.486-4.776,6.661c0,3.614,1.369,6.79,5.396,6.79c1.11,0,2.401-0.258,3.408-0.723l-0.155-1.987    c-0.852,0.567-2.014,0.98-3.047,0.98c-2.582,0-3.331-2.323-3.331-4.44H161.958L161.958,12.987z M159.789,11.49h-4.802    c0-1.653,0.672-4.105,2.504-4.105C159.376,7.384,159.789,9.914,159.789,11.49L159.789,11.49z"></path>
            <path d="M172.125,18.642l-0.156-2.041c-0.568,0.361-1.395,0.671-2.09,0.671c-2.686,0-3.564-2.608-3.564-4.905    c0-2.169,0.904-4.776,3.41-4.776c0.748,0,1.547,0.181,2.166,0.593l0.156-1.961c-0.826-0.337-1.678-0.517-2.557-0.517    c-3.381,0-5.55,2.865-5.55,6.661c0,3.485,1.601,6.79,5.472,6.79C170.344,19.157,171.246,18.95,172.125,18.642L172.125,18.642z"></path>
            <path d="M180.021,18.795l-0.154-1.858c-0.387,0.207-0.748,0.361-1.162,0.361c-1.213,0-1.291-0.774-1.291-1.781V7.746h2.506V5.964    h-2.506V2.401l-2.193,0.723v2.84h-1.885v1.782h1.859v8.313c0,1.832,0.773,3.097,2.762,3.097    C178.602,19.157,179.377,19.028,180.021,18.795L180.021,18.795z"></path>
            <path fill-rule="evenodd" clip-rule="evenodd" d="M191.77,12.367c0-3.305-1.264-6.661-5.111-6.661c-3.562,0-5.111,3.486-5.111,6.661    c0,3.279,1.342,6.79,5.111,6.79C190.4,19.157,191.77,15.568,191.77,12.367L191.77,12.367z M189.395,12.367    c0,1.782-0.387,4.982-2.736,4.982c-2.375,0-2.736-3.175-2.736-4.982c0-1.73,0.439-4.854,2.736-4.854    C189.084,7.514,189.395,10.534,189.395,12.367L189.395,12.367z"></path>
            <path d="M200.26,5.784c-0.182-0.026-0.363-0.078-0.543-0.078c-1.473,0-2.555,1.007-3.148,2.298l-0.053-2.04h-2.066    c0.027,1.187,0.105,2.375,0.105,3.562v9.346h2.219v-7.229c0-1.652,0.75-3.795,2.686-3.795c0.232,0,0.438,0.051,0.645,0.078    L200.26,5.784L200.26,5.784z"></path>
            <path d="M209.266,15.31c0-3.976-5.318-3.356-5.318-6.118c0-1.059,1.033-1.678,2.014-1.678c0.904,0,1.627,0.258,2.479,0.593    l0.156-1.936c-0.879-0.285-1.859-0.465-2.736-0.465c-2.041,0-4.209,1.214-4.209,3.614c0,4.002,5.318,3.563,5.318,6.222    c0,1.11-1.084,1.807-2.066,1.807c-1.084,0-2.168-0.361-3.174-0.902l-0.207,2.09c1.162,0.413,2.375,0.62,3.641,0.62    C207.512,19.157,209.266,17.711,209.266,15.31L209.266,15.31z"></path>
            <polygon points="215.258,0.258 212.959,0.258 211.592,6.377 213.398,6.377 215.258,0.258 "></polygon>
            <path d="M233.291,18.615l-0.154-2.298c-0.775,0.387-1.602,0.8-2.996,0.8c-3.512,0-5.084-3.382-5.084-6.816    c0-3.485,1.572-6.893,5.111-6.893c1.16,0,2.219,0.361,2.916,0.877l0.154-2.221c-0.746-0.335-1.859-0.671-3.277-0.671    c-4.52,0-7.383,3.821-7.383,8.881c0,4.802,2.426,8.881,7.355,8.881C231.328,19.157,232.361,18.899,233.291,18.615L233.291,18.615z"></path>
            <path fill-rule="evenodd" clip-rule="evenodd" d="M245.373,12.367c0-3.305-1.266-6.661-5.111-6.661    c-3.564,0-5.111,3.486-5.111,6.661c0,3.279,1.34,6.79,5.111,6.79C244.004,19.157,245.373,15.568,245.373,12.367L245.373,12.367z     M242.998,12.367c0,1.782-0.389,4.982-2.736,4.982c-2.377,0-2.738-3.175-2.738-4.982c0-1.73,0.439-4.854,2.738-4.854    C242.688,7.514,242.998,10.534,242.998,12.367L242.998,12.367z"></path>
            <path d="M257.088,18.873v-8.778c0-2.349-0.928-4.389-3.561-4.389c-1.576,0-2.764,0.955-3.357,2.143l-0.053-1.885h-2.064    c0.027,1.187,0.104,2.375,0.104,3.562v9.346h2.221v-8.158c0-1.395,0.773-3.175,2.453-3.175c1.496,0,2.039,1.265,2.039,2.633v8.701    H257.088L257.088,18.873z"></path>
            <path d="M266.178,0.233C265.789,0.155,265.326,0,264.604,0c-2.17,0-3.33,1.06-3.33,3.718v2.246h-2.016v1.782h2.016v11.127h2.219    V7.746h2.271V5.964h-2.271v-2.22c0-1.239,0.465-1.937,1.576-1.937c0.334,0,0.67,0.052,0.955,0.181L266.178,0.233L266.178,0.233z"></path>
            <path fill-rule="evenodd" clip-rule="evenodd" d="M276.342,12.987v-0.826c0-2.917-0.928-6.455-4.467-6.455    c-3.406,0-4.775,3.486-4.775,6.661c0,3.614,1.369,6.79,5.396,6.79c1.109,0,2.4-0.258,3.408-0.723l-0.154-1.987    c-0.854,0.567-2.016,0.98-3.049,0.98c-2.58,0-3.33-2.323-3.33-4.44H276.342L276.342,12.987z M274.174,11.49h-4.803    c0-1.653,0.672-4.105,2.504-4.105C273.762,7.384,274.174,9.914,274.174,11.49L274.174,11.49z"></path>
            <path d="M284.754,5.784c-0.182-0.026-0.361-0.078-0.543-0.078c-1.471,0-2.555,1.007-3.15,2.298l-0.051-2.04h-2.066    c0.027,1.187,0.104,2.375,0.104,3.562v9.346h2.221v-7.229c0-1.652,0.75-3.795,2.686-3.795c0.232,0,0.439,0.051,0.645,0.078    L284.754,5.784L284.754,5.784z"></path>
            <path fill-rule="evenodd" clip-rule="evenodd" d="M295.078,12.987v-0.826c0-2.917-0.932-6.455-4.467-6.455    c-3.408,0-4.775,3.486-4.775,6.661c0,3.614,1.367,6.79,5.395,6.79c1.109,0,2.4-0.258,3.406-0.723l-0.154-1.987    c-0.852,0.567-2.012,0.98-3.045,0.98c-2.582,0-3.332-2.323-3.332-4.44H295.078L295.078,12.987z M292.908,11.49h-4.803    c0-1.653,0.672-4.105,2.506-4.105C292.494,7.384,292.908,9.914,292.908,11.49L292.908,11.49z"></path>
            <path d="M306.715,18.873v-8.778c0-2.349-0.93-4.389-3.562-4.389c-1.576,0-2.764,0.955-3.355,2.143l-0.053-1.885h-2.064    c0.025,1.187,0.104,2.375,0.104,3.562v9.346h2.219v-8.158c0-1.395,0.775-3.175,2.453-3.175c1.498,0,2.039,1.265,2.039,2.633v8.701    H306.715L306.715,18.873z"></path>
            <path d="M317.662,18.642l-0.156-2.041c-0.566,0.361-1.393,0.671-2.09,0.671c-2.686,0-3.562-2.608-3.562-4.905    c0-2.169,0.902-4.776,3.408-4.776c0.748,0,1.549,0.181,2.168,0.593l0.154-1.961c-0.824-0.337-1.678-0.517-2.557-0.517    c-3.381,0-5.549,2.865-5.549,6.661c0,3.485,1.6,6.79,5.473,6.79C315.881,19.157,316.785,18.95,317.662,18.642L317.662,18.642z"></path>
            <path fill-rule="evenodd" clip-rule="evenodd" d="M328.684,12.987v-0.826c0-2.917-0.928-6.455-4.465-6.455    c-3.408,0-4.777,3.486-4.777,6.661c0,3.614,1.369,6.79,5.396,6.79c1.109,0,2.4-0.258,3.408-0.723l-0.156-1.987    c-0.852,0.567-2.012,0.98-3.045,0.98c-2.582,0-3.332-2.323-3.332-4.44H328.684L328.684,12.987z M326.516,11.49h-4.803    c0-1.653,0.672-4.105,2.506-4.105C326.104,7.384,326.516,9.914,326.516,11.49L326.516,11.49z"></path>
        </g>
    </g>
</svg>