<?xml version="1.0" encoding="utf-8"?>
<!-- Generator: Adobe Illustrator 16.0.0, SVG Export Plug-In . SVG Version: 6.00 Build 0)  -->
<!DOCTYPE svg PUBLIC "-//W3C//DTD SVG 1.1//EN" "http://www.w3.org/Graphics/SVG/1.1/DTD/svg11.dtd">
<svg version="1.1" id="Ebene_1" xmlns="http://www.w3.org/2000/svg" xmlns:xlink="http://www.w3.org/1999/xlink" x="0px" y="0px"
	 width="566.93px" height="142px" viewBox="0 0 566.93 142" enable-background="new 0 0 566.93 142" xml:space="preserve">
<g>
	<g>
		<polygon fill="#51AE75" points="123.663,116 126.235,119.143 129.379,123 394,123 394,116 		"/>
	</g>
	<path fill="#195C32" d="M106.752,136.102l14.218-12.9l-17.042-19.995c5.626-8.438,8.917-18.56,8.917-29.468
		c0-29.487-23.902-53.385-53.391-53.385c-29.484,0-53.387,23.898-53.387,53.385c0,29.486,23.903,53.392,53.387,53.392
		c7.286,0,14.203-1.503,20.521-4.154c0.839-0.353-12.942-15.376-12.942-15.376c-2.441,0.543-4.973,0.852-7.579,0.852
		c-19.171,0-34.712-15.541-34.712-34.713c0-19.171,15.541-34.716,34.712-34.716c19.175,0,34.715,15.544,34.715,34.716
		c0,12.368-6.489,23.197-16.227,29.346l2.191,2.028l-0.009,0.011L106.752,136.102z"/>
	<g>
		<rect x="393" y="116" fill="#195C32" width="167" height="7"/>
		<path fill="#195C32" d="M427.367,92.086c3.608,3.614,7.871,7.314,12.714,9.401c4.845,2.089,8.721,3.513,14.232,3.513
			c2.686,0,44.687,0,44.687,0v-4.231c0-1.873,1.123-3.745,1.917-5.616c1.097-2.589,3.385-7.654,3.385-7.654S508.751,78,510.883,73
			h26.563c2.192,5,4.361,9.541,6.501,14.439c2.194,5.063,6.919,17.561,6.919,17.561h8.661c0,0-11.873-28.228-17.525-40.919
			c-5.644-12.699-11.331-25.699-17.05-38.538l-0.739-1.775L506.423,63.23C501.817,73.591,497.162,85,492.501,94h-12.132
			c5.405-4,7.956-6.92,10.746-11.804c3.252-5.663,4.896-11.799,4.896-18.664c0-5.512-1.08-10.672-3.203-15.559
			c-2.122-4.873-5.027-9.123-8.637-12.732c-3.613-3.614-7.916-6.495-12.785-8.618c-4.904-2.129-10.175-3.193-15.669-3.193
			c-5.501,0-10.754,1.085-15.616,3.215c-4.843,2.125-9.126,5.034-12.734,8.646c-3.605,3.608-6.498,7.915-8.583,12.79
			c-2.082,4.875-3.141,10.144-3.141,15.663c0,5.519,1.059,10.774,3.141,15.614C420.869,84.198,423.762,88.48,427.367,92.086z
			 M519.773,53.81c1.623-3.486,3.102-7.337,4.404-10.983c0.096,0.306,0.194,0.507,0.291,0.875c1.689,3.763,3.339,7.934,4.948,11.668
			C530.882,58.751,532.38,62,533.898,66h-19.477C516.177,62,517.955,57.71,519.773,53.81z M426.582,51.354
			c1.674-3.894,3.971-7.345,6.822-10.265c2.829-2.909,6.206-5.237,10.039-6.921c3.797-1.671,7.928-2.524,12.274-2.524
			c4.343,0,8.49,0.853,12.331,2.524c3.859,1.685,7.273,4.013,10.147,6.927c2.89,2.925,5.202,6.376,6.874,10.26
			c1.673,3.881,2.52,8.05,2.52,12.394c0,4.41-0.847,8.593-2.517,12.44c-1.671,3.847-3.984,7.265-6.877,10.154
			c-2.885,2.883-6.317,5.199-10.2,6.871c-3.866,1.672-8.036,2.52-12.392,2.52c-4.348,0-8.48-0.848-12.273-2.516
			c-3.815-1.676-7.194-3.986-10.04-6.871c-2.85-2.882-5.126-6.295-6.767-10.154c-1.636-3.833-2.466-8.02-2.466-12.443
			C424.059,59.411,424.905,55.24,426.582,51.354z"/>
		<rect x="393" y="66" fill="#195C32" width="14" height="4"/>
	</g>
	<g>
		<g>
			<path fill="#51AE75" d="M175.759,64.886c-2.488-1.822-5.226-3.333-8.135-4.491c-2.88-1.14-5.504-2.119-7.81-2.912
				c-1.711-0.572-3.361-1.187-4.906-1.833c-1.478-0.618-2.777-1.381-3.868-2.269c-1.057-0.854-1.911-1.91-2.541-3.135
				c-0.62-1.204-0.933-2.732-0.933-4.541c0-1.705,0.274-3.348,0.82-4.874c0.539-1.516,1.337-2.861,2.374-3.995
				c1.034-1.136,2.38-2.069,3.996-2.777c1.623-0.708,3.555-1.068,5.742-1.068c1.654,0,3.207,0.19,4.617,0.568
				c1.429,0.385,2.754,0.863,3.938,1.417c1.187,0.561,2.238,1.174,3.124,1.819c0.924,0.679,1.71,1.303,2.337,1.859l0.739,0.654
				l0.624-0.764c0.652-0.798,1.309-1.659,1.954-2.569c0.571-0.809,1.201-1.639,1.869-2.459l0.586-0.719l-0.705-0.602
				c-3.578-3.055-6.956-5.118-10.046-6.132c-3.067-1.013-6.108-1.525-9.039-1.525c-3.983,0-7.409,0.654-10.182,1.945
				c-2.772,1.292-5.052,2.975-6.771,5.001c-1.72,2.028-2.961,4.354-3.686,6.911c-0.717,2.531-1.041,5.073-0.963,7.55
				c0.074,3.279,0.759,6.076,2.036,8.314c1.249,2.202,2.776,4.056,4.536,5.51c1.74,1.437,3.6,2.585,5.53,3.419
				c1.843,0.794,3.453,1.46,4.8,1.983c1.954,0.725,4.111,1.461,6.599,2.252c2.321,0.741,4.532,1.74,6.573,2.972
				c1.994,1.205,3.703,2.774,5.079,4.661c1.331,1.829,2.004,4.198,2.004,7.041c0,2.171-0.442,4.138-1.316,5.85
				c-0.886,1.737-2.055,3.2-3.472,4.343c-1.428,1.159-3.108,2.06-4.996,2.679c-3.808,1.24-8.295,1.201-11.771,0.103
				c-1.785-0.559-3.442-1.3-4.931-2.201c-1.521-0.922-2.913-1.918-4.135-2.968c-1.253-1.075-2.386-2.155-3.367-3.207l-0.669-0.717
				l-5.632,5.632l0.461,0.652c0.921,1.3,2.205,2.662,3.816,4.05c1.607,1.382,3.502,2.671,5.631,3.829
				c2.124,1.158,4.479,2.139,7.004,2.916c2.548,0.788,5.326,1.187,8.256,1.187c3.227,0,6.31-0.512,9.17-1.524
				c2.874-1.024,5.426-2.522,7.584-4.455c2.165-1.937,3.896-4.3,5.147-7.029c1.254-2.74,1.889-5.851,1.889-9.25
				c0-4.021-0.875-7.463-2.604-10.23C180.426,69.046,178.287,66.734,175.759,64.886z"/>
			<path fill="#51AE75" d="M312.243,35.622c-3.564-3.417-7.789-5.565-12.555-7.396C294.934,26.409,289.817,26,284.481,26H267v79
				h13.771c7.824,0,14.552-2.034,19.998-4.443c5.462-2.416,9.963-5.954,13.377-9.71c3.424-3.758,5.937-8.213,7.474-12.838
				c1.514-4.591,2.281-9.244,2.281-13.625c0-6.004-1.056-11.533-3.135-16.327C318.691,43.272,315.825,39.057,312.243,35.622z
				 M285.23,95.397L275,95.379V36h8.94c4.304,0,8.419-0.553,12.229,0.894c3.798,1.445,7.152,2.869,9.964,5.498
				c2.803,2.631,5.046,5.568,6.663,9.36c1.616,3.807,2.432,7.935,2.432,12.582c0,4.241-0.746,8.196-2.225,11.919
				c-1.479,3.727-3.634,6.961-6.398,9.69c-2.781,2.749-5.598,5.058-9.546,6.742C292.481,94.639,290.249,95.397,285.23,95.397z"/>
			<path fill="#51AE75" d="M387.52,91.554c-2.395,1.41-4.931,2.499-7.537,3.236c-2.593,0.737-5.375,1.111-8.267,1.111
				c-4.299,0-8.381-0.834-12.134-2.484c-3.767-1.654-7.105-3.94-9.922-6.796c-2.819-2.851-5.07-6.227-6.69-10.031
				c-1.615-3.79-2.437-7.932-2.437-12.308c0-4.298,0.837-8.417,2.485-12.246c1.663-3.849,3.936-7.263,6.753-10.15
				c2.813-2.887,6.149-5.188,9.919-6.846c3.76-1.65,7.845-2.488,12.137-2.488c5.695,0,10.97,1.463,15.678,4.343l0.765,0.467
				l0.511-0.733c0.653-0.946,1.306-1.87,1.955-2.776c0.687-0.957,1.325-1.913,1.895-2.844l0.506-0.828l-0.834-0.485
				c-3.039-1.779-6.294-3.172-9.674-4.14c-3.387-0.969-7.021-1.458-10.801-1.458c-5.5,0-10.743,1.075-15.576,3.194
				c-4.825,2.12-9.096,5.016-12.692,8.613c-3.604,3.606-6.482,7.896-8.563,12.753c-2.082,4.868-3.137,10.125-3.137,15.622
				c0,5.503,1.055,10.74,3.14,15.565c2.074,4.826,4.956,9.1,8.558,12.7c3.595,3.597,7.866,6.481,12.704,8.564
				c4.831,2.08,10.068,3.133,15.567,3.133c3.784,0,7.423-0.507,10.812-1.51c3.382-1.007,6.596-2.378,9.547-4.079l0.885-0.509
				l-4.785-7.043L387.52,91.554z"/>
		</g>
		<path fill="#51AE75" d="M198.569,104.461c2.274-5.026,4.528-9.406,6.771-14.465c2.167-4.9,4.319-10.996,6.452-13.996h26.56
			c2.198,3,4.366,9.049,6.497,13.949c2.207,5.063,4.442,9.832,6.718,14.865l0.207,0.186h8.659l-0.469-1.14
			c-5.719-12.831-11.403-25.583-17.052-38.279L225.125,25.59l-0.734,1.624c-5.725,12.842-11.41,25.677-17.054,38.368L189.815,105
			h8.547L198.569,104.461z M220.68,55.757c1.644-3.532,3.12-7.4,4.404-11.007c0.096,0.306,0.189,0.492,0.294,0.859
			c1.69,3.764,3.333,7.987,4.95,11.716c1.46,3.383,2.951,7.675,4.476,10.675h-19.474C217.082,62,218.87,59.657,220.68,55.757z"/>
	</g>
</g>
</svg>
